
<svg version="1.0" xmlns="http://www.w3.org/2000/svg"
 width="300.000000pt" height="150.000000pt" viewBox="0 0 300.000000 150.000000"
 preserveAspectRatio="xMidYMid meet">

<g transform="translate(0.000000,150.000000) scale(0.100000,-0.100000)"
fill="#000000" stroke="none">
<path d="M1743 1490 c-27 -11 -43 -40 -43 -77 0 -23 25 -53 135 -163 l135
-135 -396 -5 -396 -5 -19 -24 c-18 -22 -19 -44 -19 -407 0 -211 -3 -384 -7
-384 -4 0 -68 61 -143 135 -143 142 -161 152 -208 119 -17 -12 -22 -25 -22
-62 l0 -48 218 -217 c131 -130 226 -217 237 -217 21 0 465 436 465 457 0 7 5
13 10 13 20 0 9 24 -25 56 -58 57 -70 52 -227 -103 l-138 -137 0 332 0 332
337 0 337 0 -137 -138 c-125 -126 -137 -142 -137 -174 0 -28 7 -42 31 -62 17
-14 38 -26 47 -26 9 0 116 100 239 222 205 205 223 225 223 257 0 32 -17 52
-202 239 -183 183 -240 233 -265 231 -4 0 -18 -4 -30 -9z"/>
</g>
</svg>
